<svg width="206" height="206" viewBox="153 153 206 206" fill="none" xmlns="http://www.w3.org/2000/svg">
<path d="M165.607 153.562C167.326 153.364 171.309 153.457 173.186 153.459L186.874 153.473L232.204 153.481L307.368 153.479L331.393 153.46C335.981 153.451 340.533 153.41 345.133 153.513C349.431 153.479 353.156 155.225 355.838 158.629C356.966 160.079 358.326 162.519 358.448 164.387C358.913 171.448 358.713 178.74 358.701 185.816L358.688 229.087L358.698 306.144L358.708 331.552C358.711 336.169 358.718 340.767 358.633 345.382C358.501 352.399 353.988 357.274 347.083 358.509C334.923 358.897 321.316 358.579 309.013 358.579H237.283L188.877 358.567L174.696 358.592C169.426 358.624 163.439 359.427 158.985 356.157C152.894 351.684 153.463 346.469 153.459 339.799L153.464 326.007L153.469 278.549L153.466 203.391L153.459 178.916C153.458 174.752 153.384 170.582 153.517 166.42C153.746 159.291 158.639 154.441 165.607 153.562Z" fill="#FEFEFE"/>
<path d="M165.343 159.324C169.262 159.151 173.807 159.266 177.773 159.269L199.773 159.274L267.167 159.276L320.197 159.266L337.119 159.263C340.574 159.263 347.329 158.517 350.082 160.833C351.612 162.12 352.682 163.818 352.744 165.864C352.849 169.377 352.814 172.93 352.807 176.463L352.784 195.371L352.787 255.005L352.797 315.633L352.807 335.533C352.809 339.173 352.842 342.86 352.729 346.495C352.682 348.01 351.949 349.373 350.954 350.448C350.059 351.385 348.814 352.42 347.499 352.623C344.499 353.08 341.509 352.943 338.484 352.938C335.374 352.935 332.254 352.903 329.137 352.9L290.309 352.975L290.302 331.465C287.907 331.395 285.857 331.42 283.472 331.483L283.464 352.958C277.894 352.823 271.962 352.94 266.374 352.975C266.112 334.41 266.544 315.625 266.304 297.038C266.197 288.738 266.237 281.818 272.517 275.54C279.422 268.635 288.212 269.655 297.209 269.705C297.084 274.948 297.437 281.888 296.979 286.935C300.862 284.895 304.954 282.25 308.847 280.085C320.689 273.495 332.687 265.905 344.589 259.545L316.374 243.256C310.602 239.921 302.704 234.963 296.984 232.129C297.274 237.577 297.142 243.723 297.142 249.234C284.262 249.205 278.067 248.48 266.309 254.745C266.497 251.12 266.374 246.63 266.364 242.947C266.329 235.872 266.332 228.796 266.372 221.721C272.092 221.686 277.812 221.696 283.529 221.75C280.432 216.772 277.377 211.259 274.427 206.155C268.327 195.503 262.167 184.884 255.952 174.299C253.542 179.178 248.981 186.561 246.132 191.502L228.622 221.738C234.12 221.582 240.21 221.703 245.746 221.699L245.74 308.105C245.739 322.97 245.884 338.1 245.682 352.948C228.976 352.69 211.191 352.838 194.465 352.975C194.317 346.028 194.383 338.42 194.48 331.455C192.152 331.395 189.823 331.405 187.496 331.483L187.49 352.968C182.289 352.74 166.814 353.99 162.889 351.823C161.185 350.883 159.929 349.348 159.466 347.445C158.768 344.573 159.24 337.203 159.239 333.91L159.236 301.758L159.243 213.187C159.241 197.99 159.22 182.775 159.252 167.578C159.256 165.77 159.292 164.196 160.342 162.657C161.656 160.733 163.11 159.77 165.343 159.324Z" fill="#2E2583"/>
<path d="M187.508 304.003L194.418 303.998C194.395 310.831 194.418 317.663 194.486 324.493L187.488 324.486L187.508 304.003Z" fill="#FEFEFE"/>
<path d="M187.505 249.272L194.464 249.248C194.275 255.757 194.446 263.1 194.454 269.672C192.227 269.61 189.744 269.667 187.496 269.67L187.505 249.272Z" fill="#FEFEFE"/>
<path d="M187.518 276.595C189.838 276.595 192.158 276.585 194.478 276.562C194.275 283.173 194.426 290.523 194.429 297.17L187.514 297.18L187.518 276.595Z" fill="#FEFEFE"/>
<path d="M283.487 303.993L290.279 303.99L290.299 324.495L283.449 324.483C283.604 317.813 283.484 310.698 283.487 303.993Z" fill="#FEFEFE"/>
<path d="M283.495 276.583L290.287 276.578L290.255 297.163C288.082 297.231 285.675 297.176 283.482 297.171L283.495 276.583Z" fill="#FEFEFE"/>
</svg>
