<svg width="512" height="512" viewBox="0 0 512 512" fill="none" xmlns="http://www.w3.org/2000/svg">
<path d="M215.627 152.095C221.812 151.888 228.596 152.017 234.821 152.02L268.973 152.026L287.168 152C292.713 151.993 298.92 151.126 303.205 155.338C305.475 157.569 306.968 159.382 307.02 162.728C307.09 167.004 307.06 171.27 307.055 175.546L307.038 199.599L307.035 272.594L307.043 322.287L307.053 337.632C307.058 340.442 307.18 343.494 306.963 346.277C306.558 351.434 302.248 355.842 296.97 356.002H242.596C233.564 356.002 224.529 356.087 215.504 355.972C208.574 355.784 204.987 349.084 205.066 342.804C205.139 337.009 205.066 331.069 205.072 325.299L205.07 284.147L205.076 204.019L205.055 178.691C205.046 174.125 204.963 169.525 205.066 164.963C205.214 158.363 209.227 153.66 215.627 152.095Z" fill="black"/>
<path d="M217.254 155.069C220.046 154.746 226.34 154.907 229.391 154.912L251.115 154.937L279.605 154.924C284.052 154.922 290.967 154.725 295.235 155.094C296.857 155.222 298.425 155.737 299.807 156.597C301.775 157.816 304.115 160.689 304.335 162.841C304.862 168.048 304.622 174.467 304.62 179.699L304.617 216.658L304.612 300.526C304.612 314.481 304.645 328.439 304.617 342.394C304.605 348.074 302.205 352.441 296.265 353.714C291.502 354.081 285.445 353.909 280.562 353.906L254.692 353.889L231.195 353.904C226.285 353.911 216.925 354.696 212.795 352.381C207.184 349.236 207.905 341.974 207.932 336.544C207.948 333.384 207.941 329.964 207.941 326.684L207.939 285.729L207.948 205.316L207.925 180.156C207.914 175.362 207.826 170.512 207.968 165.72C208.144 159.77 211.448 156.115 217.254 155.069Z" fill="#FEFEFE"/>
<path d="M256.265 169.391C256.948 170.11 262.003 179.239 262.913 180.811L276.74 204.717C279.468 209.446 282.4 214.806 285.328 219.345C280.05 219 271.45 219.264 265.968 219.312L266.003 289.695C271.483 289.778 279.935 289.92 285.265 289.633C277.655 301.985 270.74 314.98 263.323 327.47C261.123 331.178 258.255 335.705 256.42 339.54C255.62 338.69 249.972 328.55 248.969 326.868C241.698 314.663 234.817 301.798 227.421 289.69C233.261 289.943 240.804 289.715 246.772 289.703C246.5 266.835 246.542 242.171 246.789 219.316C240.439 219.18 233.736 219.257 227.373 219.295C230.723 214.158 234.656 206.886 237.779 201.473L256.265 169.391Z" fill="black"/>
</svg>
